solid OpenSCAD_Model
  facet normal -1 0 0
    outer loop
      vertex 0 40.8 0
      vertex 0 25.5 1.1
      vertex 0 40.8 1.9
    endloop
  endfacet
  facet normal -1 0 0
    outer loop
      vertex 0 40.8 0
      vertex 0 15.3 1.1
      vertex 0 25.5 1.1
    endloop
  endfacet
  facet normal -1 0 0
    outer loop
      vertex 0 0 0
      vertex 0 15.3 1.1
      vertex 0 40.8 0
    endloop
  endfacet
  facet normal -1 0 0
    outer loop
      vertex 0 0 1.9
      vertex 0 15.3 1.1
      vertex 0 0 0
    endloop
  endfacet
  facet normal -1 0 0
    outer loop
      vertex 0 15.3 1.1
      vertex 0 0 1.9
      vertex 0 15.3 1.9
    endloop
  endfacet
  facet normal -1 -0 0
    outer loop
      vertex 0 40.8 1.9
      vertex 0 25.5 1.1
      vertex 0 25.5 1.9
    endloop
  endfacet
  facet normal 0 0 1
    outer loop
      vertex 40.8 40.8 1.9
      vertex 39.7 33 1.9
      vertex 40.8 33 1.9
    endloop
  endfacet
  facet normal 0 0 1
    outer loop
      vertex 24.9 13.6 1.9
      vertex 39.7 27.8 1.9
      vertex 39.7 33 1.9
    endloop
  endfacet
  facet normal 0 0 1
    outer loop
      vertex 39.7 27.8 1.9
      vertex 24.9 13.6 1.9
      vertex 39.7 13 1.9
    endloop
  endfacet
  facet normal 0 0 1
    outer loop
      vertex 24.9 9.6 1.9
      vertex 39.7 13 1.9
      vertex 24.9 13.6 1.9
    endloop
  endfacet
  facet normal -0 0 1
    outer loop
      vertex 0 40.8 1.9
      vertex 39.7 33 1.9
      vertex 40.8 40.8 1.9
    endloop
  endfacet
  facet normal 0 -0 1
    outer loop
      vertex 15.9 13.6 1.9
      vertex 39.7 33 1.9
      vertex 1.6 25.5 1.9
    endloop
  endfacet
  facet normal -0 0 1
    outer loop
      vertex 1.6 15.3 1.9
      vertex 15.9 13.6 1.9
      vertex 1.6 25.5 1.9
    endloop
  endfacet
  facet normal 0 0 1
    outer loop
      vertex 39.7 33 1.9
      vertex 15.9 13.6 1.9
      vertex 24.9 13.6 1.9
    endloop
  endfacet
  facet normal 0 0 1
    outer loop
      vertex 39.7 33 1.9
      vertex 0 40.8 1.9
      vertex 1.6 25.5 1.9
    endloop
  endfacet
  facet normal 0 0 1
    outer loop
      vertex 1.6 25.5 1.9
      vertex 0 40.8 1.9
      vertex 0 25.5 1.9
    endloop
  endfacet
  facet normal -0 0 1
    outer loop
      vertex 39.7 27.8 1.9
      vertex 40.8 24.3 1.9
      vertex 40.8 27.8 1.9
    endloop
  endfacet
  facet normal 0 0 1
    outer loop
      vertex 40.8 24.3 1.9
      vertex 39.7 27.8 1.9
      vertex 40.8 16.5 1.9
    endloop
  endfacet
  facet normal 0 0 1
    outer loop
      vertex 39.7 13 1.9
      vertex 40.8 16.5 1.9
      vertex 39.7 27.8 1.9
    endloop
  endfacet
  facet normal 0 0 1
    outer loop
      vertex 40.8 16.5 1.9
      vertex 39.7 13 1.9
      vertex 40.8 13 1.9
    endloop
  endfacet
  facet normal -0 0 1
    outer loop
      vertex 39.7 7.8 1.9
      vertex 40.8 0 1.9
      vertex 40.8 7.8 1.9
    endloop
  endfacet
  facet normal 0 0 1
    outer loop
      vertex 39.7 13 1.9
      vertex 24.9 9.6 1.9
      vertex 39.7 7.8 1.9
    endloop
  endfacet
  facet normal 0 0 1
    outer loop
      vertex 39.7 7.8 1.9
      vertex 24.9 9.6 1.9
      vertex 40.8 0 1.9
    endloop
  endfacet
  facet normal -0 0 1
    outer loop
      vertex 15.9 9.6 1.9
      vertex 40.8 0 1.9
      vertex 24.9 9.6 1.9
    endloop
  endfacet
  facet normal 0 0 1
    outer loop
      vertex 15.9 13.6 1.9
      vertex 1.6 15.3 1.9
      vertex 15.9 9.6 1.9
    endloop
  endfacet
  facet normal 0 0 1
    outer loop
      vertex 0 0 1.9
      vertex 1.6 15.3 1.9
      vertex 0 15.3 1.9
    endloop
  endfacet
  facet normal 0 0 1
    outer loop
      vertex 1.6 15.3 1.9
      vertex 0 0 1.9
      vertex 15.9 9.6 1.9
    endloop
  endfacet
  facet normal 0 0 1
    outer loop
      vertex 15.9 9.6 1.9
      vertex 0 0 1.9
      vertex 40.8 0 1.9
    endloop
  endfacet
  facet normal -1 0 0
    outer loop
      vertex 40.8 16.5 1.9
      vertex 40.8 24.3 2
      vertex 40.8 24.3 1.9
    endloop
  endfacet
  facet normal -1 -0 0
    outer loop
      vertex 40.8 24.3 2
      vertex 40.8 16.5 1.9
      vertex 40.8 16.5 2
    endloop
  endfacet
  facet normal 1 0 0
    outer loop
      vertex 40.8 7.8 1.9
      vertex 40.8 0 1.9
      vertex 40.8 7.8 1.1
    endloop
  endfacet
  facet normal 1 0 0
    outer loop
      vertex 40.8 13 1.1
      vertex 40.8 16.5 1.9
      vertex 40.8 13 1.9
    endloop
  endfacet
  facet normal 1 0 0
    outer loop
      vertex 40.8 27.8 1.9
      vertex 40.8 24.3 1.9
      vertex 40.8 27.8 1.1
    endloop
  endfacet
  facet normal 1 0 0
    outer loop
      vertex 40.8 33 1.1
      vertex 40.8 40.8 1.9
      vertex 40.8 33 1.9
    endloop
  endfacet
  facet normal 1 0 0
    outer loop
      vertex 40.8 40.8 1.9
      vertex 40.8 33 1.1
      vertex 40.8 40.8 0
    endloop
  endfacet
  facet normal 1 0 0
    outer loop
      vertex 40.8 24.3 0.2
      vertex 40.8 33 1.1
      vertex 40.8 27.8 1.1
    endloop
  endfacet
  facet normal 1 0 0
    outer loop
      vertex 40.8 24.3 0.2
      vertex 40.8 27.8 1.1
      vertex 40.8 24.3 1.9
    endloop
  endfacet
  facet normal 1 0 0
    outer loop
      vertex 40.8 33 1.1
      vertex 40.8 24.3 0.2
      vertex 40.8 40.8 0
    endloop
  endfacet
  facet normal 1 -0 0
    outer loop
      vertex 40.8 16.5 0.2
      vertex 40.8 40.8 0
      vertex 40.8 24.3 0.2
    endloop
  endfacet
  facet normal 1 0 0
    outer loop
      vertex 40.8 16.5 1.9
      vertex 40.8 13 1.1
      vertex 40.8 16.5 0.2
    endloop
  endfacet
  facet normal 1 -0 0
    outer loop
      vertex 40.8 7.8 1.1
      vertex 40.8 16.5 0.2
      vertex 40.8 13 1.1
    endloop
  endfacet
  facet normal 1 0 0
    outer loop
      vertex 40.8 0 0
      vertex 40.8 7.8 1.1
      vertex 40.8 0 1.9
    endloop
  endfacet
  facet normal 1 0 0
    outer loop
      vertex 40.8 16.5 0.2
      vertex 40.8 0 0
      vertex 40.8 40.8 0
    endloop
  endfacet
  facet normal 1 0 0
    outer loop
      vertex 40.8 7.8 1.1
      vertex 40.8 0 0
      vertex 40.8 16.5 0.2
    endloop
  endfacet
  facet normal 0 0 -1
    outer loop
      vertex 24.9 13.6 0
      vertex 40.8 0 0
      vertex 24.9 9.6 0
    endloop
  endfacet
  facet normal 0 0 -1
    outer loop
      vertex 40.8 0 0
      vertex 15.9 9.6 0
      vertex 24.9 9.6 0
    endloop
  endfacet
  facet normal -0 0 -1
    outer loop
      vertex 15.9 9.6 0
      vertex 0 0 0
      vertex 15.9 13.6 0
    endloop
  endfacet
  facet normal 0 0 -1
    outer loop
      vertex 0 0 0
      vertex 15.9 9.6 0
      vertex 40.8 0 0
    endloop
  endfacet
  facet normal 0 0 -1
    outer loop
      vertex 40.8 0 0
      vertex 24.9 13.6 0
      vertex 40.8 40.8 0
    endloop
  endfacet
  facet normal 0 0 -1
    outer loop
      vertex 15.9 13.6 0
      vertex 40.8 40.8 0
      vertex 24.9 13.6 0
    endloop
  endfacet
  facet normal 0 0 -1
    outer loop
      vertex 0 40.8 0
      vertex 15.9 13.6 0
      vertex 0 0 0
    endloop
  endfacet
  facet normal 0 0 -1
    outer loop
      vertex 15.9 13.6 0
      vertex 0 40.8 0
      vertex 40.8 40.8 0
    endloop
  endfacet
  facet normal 0 -1 0
    outer loop
      vertex 0 0 0
      vertex 40.8 0 1.9
      vertex 0 0 1.9
    endloop
  endfacet
  facet normal 0 -1 -0
    outer loop
      vertex 40.8 0 1.9
      vertex 0 0 0
      vertex 40.8 0 0
    endloop
  endfacet
  facet normal 0 1 -0
    outer loop
      vertex 40.8 40.8 0
      vertex 0 40.8 1.9
      vertex 40.8 40.8 1.9
    endloop
  endfacet
  facet normal 0 1 0
    outer loop
      vertex 0 40.8 1.9
      vertex 40.8 40.8 0
      vertex 0 40.8 0
    endloop
  endfacet
  facet normal -1 0 0
    outer loop
      vertex 1.6 15.3 1.1
      vertex 1.6 25.5 1.9
      vertex 1.6 25.5 1.1
    endloop
  endfacet
  facet normal -1 -0 0
    outer loop
      vertex 1.6 25.5 1.9
      vertex 1.6 15.3 1.1
      vertex 1.6 15.3 1.9
    endloop
  endfacet
  facet normal 0 -1 0
    outer loop
      vertex 0 25.5 1.1
      vertex 1.6 25.5 1.9
      vertex 0 25.5 1.9
    endloop
  endfacet
  facet normal 0 -1 -0
    outer loop
      vertex 1.6 25.5 1.9
      vertex 0 25.5 1.1
      vertex 1.6 25.5 1.1
    endloop
  endfacet
  facet normal -0 0 1
    outer loop
      vertex 0 25.5 1.1
      vertex 1.6 15.3 1.1
      vertex 1.6 25.5 1.1
    endloop
  endfacet
  facet normal 0 0 1
    outer loop
      vertex 1.6 15.3 1.1
      vertex 0 25.5 1.1
      vertex 0 15.3 1.1
    endloop
  endfacet
  facet normal 0 1 -0
    outer loop
      vertex 1.6 15.3 1.1
      vertex 0 15.3 1.9
      vertex 1.6 15.3 1.9
    endloop
  endfacet
  facet normal 0 1 0
    outer loop
      vertex 0 15.3 1.9
      vertex 1.6 15.3 1.1
      vertex 0 15.3 1.1
    endloop
  endfacet
  facet normal 1 -0 0
    outer loop
      vertex 39.7 7.8 1.9
      vertex 39.7 13 1.1
      vertex 39.7 13 1.9
    endloop
  endfacet
  facet normal 1 0 0
    outer loop
      vertex 39.7 13 1.1
      vertex 39.7 7.8 1.9
      vertex 39.7 7.8 1.1
    endloop
  endfacet
  facet normal 0 -1 0
    outer loop
      vertex 39.7 13 1.1
      vertex 40.8 13 1.9
      vertex 39.7 13 1.9
    endloop
  endfacet
  facet normal 0 -1 -0
    outer loop
      vertex 40.8 13 1.9
      vertex 39.7 13 1.1
      vertex 40.8 13 1.1
    endloop
  endfacet
  facet normal -0 0 1
    outer loop
      vertex 39.7 13 1.1
      vertex 40.8 7.8 1.1
      vertex 40.8 13 1.1
    endloop
  endfacet
  facet normal 0 0 1
    outer loop
      vertex 40.8 7.8 1.1
      vertex 39.7 13 1.1
      vertex 39.7 7.8 1.1
    endloop
  endfacet
  facet normal 0 1 -0
    outer loop
      vertex 40.8 7.8 1.1
      vertex 39.7 7.8 1.9
      vertex 40.8 7.8 1.9
    endloop
  endfacet
  facet normal 0 1 0
    outer loop
      vertex 39.7 7.8 1.9
      vertex 40.8 7.8 1.1
      vertex 39.7 7.8 1.1
    endloop
  endfacet
  facet normal 1 -0 0
    outer loop
      vertex 39.7 27.8 1.9
      vertex 39.7 33 1.1
      vertex 39.7 33 1.9
    endloop
  endfacet
  facet normal 1 0 0
    outer loop
      vertex 39.7 33 1.1
      vertex 39.7 27.8 1.9
      vertex 39.7 27.8 1.1
    endloop
  endfacet
  facet normal -0 0 1
    outer loop
      vertex 39.7 33 1.1
      vertex 40.8 27.8 1.1
      vertex 40.8 33 1.1
    endloop
  endfacet
  facet normal 0 0 1
    outer loop
      vertex 40.8 27.8 1.1
      vertex 39.7 33 1.1
      vertex 39.7 27.8 1.1
    endloop
  endfacet
  facet normal 0 1 -0
    outer loop
      vertex 40.8 27.8 1.1
      vertex 39.7 27.8 1.9
      vertex 40.8 27.8 1.9
    endloop
  endfacet
  facet normal 0 1 0
    outer loop
      vertex 39.7 27.8 1.9
      vertex 40.8 27.8 1.1
      vertex 39.7 27.8 1.1
    endloop
  endfacet
  facet normal 0 -1 0
    outer loop
      vertex 39.7 33 1.1
      vertex 40.8 33 1.9
      vertex 39.7 33 1.9
    endloop
  endfacet
  facet normal 0 -1 -0
    outer loop
      vertex 40.8 33 1.9
      vertex 39.7 33 1.1
      vertex 40.8 33 1.1
    endloop
  endfacet
  facet normal 1 -0 0
    outer loop
      vertex 15.9 9.6 1.9
      vertex 15.9 13.6 0
      vertex 15.9 13.6 1.9
    endloop
  endfacet
  facet normal 1 0 0
    outer loop
      vertex 15.9 13.6 0
      vertex 15.9 9.6 1.9
      vertex 15.9 9.6 0
    endloop
  endfacet
  facet normal -1 0 0
    outer loop
      vertex 24.9 9.6 0
      vertex 24.9 13.6 1.9
      vertex 24.9 13.6 0
    endloop
  endfacet
  facet normal -1 -0 0
    outer loop
      vertex 24.9 13.6 1.9
      vertex 24.9 9.6 0
      vertex 24.9 9.6 1.9
    endloop
  endfacet
  facet normal 0 -1 0
    outer loop
      vertex 15.9 13.6 0
      vertex 24.9 13.6 1.9
      vertex 15.9 13.6 1.9
    endloop
  endfacet
  facet normal 0 -1 -0
    outer loop
      vertex 24.9 13.6 1.9
      vertex 15.9 13.6 0
      vertex 24.9 13.6 0
    endloop
  endfacet
  facet normal 0 1 -0
    outer loop
      vertex 24.9 9.6 0
      vertex 15.9 9.6 1.9
      vertex 24.9 9.6 1.9
    endloop
  endfacet
  facet normal 0 1 0
    outer loop
      vertex 15.9 9.6 1.9
      vertex 24.9 9.6 0
      vertex 15.9 9.6 0
    endloop
  endfacet
  facet normal -0 0 1
    outer loop
      vertex 40.8 24.3 2
      vertex 43 16.5 2
      vertex 43 24.3 2
    endloop
  endfacet
  facet normal 0 0 1
    outer loop
      vertex 43 16.5 2
      vertex 40.8 24.3 2
      vertex 40.8 16.5 2
    endloop
  endfacet
  facet normal 1 -0 0
    outer loop
      vertex 43 16.5 2
      vertex 43 24.3 0.2
      vertex 43 24.3 2
    endloop
  endfacet
  facet normal 1 0 0
    outer loop
      vertex 43 24.3 0.2
      vertex 43 16.5 2
      vertex 43 16.5 0.2
    endloop
  endfacet
  facet normal 0 0 -1
    outer loop
      vertex 40.8 16.5 0.2
      vertex 43 24.3 0.2
      vertex 43 16.5 0.2
    endloop
  endfacet
  facet normal -0 0 -1
    outer loop
      vertex 43 24.3 0.2
      vertex 40.8 16.5 0.2
      vertex 40.8 24.3 0.2
    endloop
  endfacet
  facet normal 0 -1 0
    outer loop
      vertex 40.8 16.5 1.9
      vertex 43 16.5 2
      vertex 40.8 16.5 2
    endloop
  endfacet
  facet normal 0 -1 0
    outer loop
      vertex 43 16.5 0.2
      vertex 40.8 16.5 1.9
      vertex 40.8 16.5 0.2
    endloop
  endfacet
  facet normal 0 -1 0
    outer loop
      vertex 40.8 16.5 1.9
      vertex 43 16.5 0.2
      vertex 43 16.5 2
    endloop
  endfacet
  facet normal 0 1 0
    outer loop
      vertex 43 24.3 2
      vertex 40.8 24.3 1.9
      vertex 40.8 24.3 2
    endloop
  endfacet
  facet normal 0 1 -0
    outer loop
      vertex 43 24.3 0.2
      vertex 40.8 24.3 1.9
      vertex 43 24.3 2
    endloop
  endfacet
  facet normal 0 1 0
    outer loop
      vertex 40.8 24.3 1.9
      vertex 43 24.3 0.2
      vertex 40.8 24.3 0.2
    endloop
  endfacet
endsolid OpenSCAD_Model
