solid OpenSCAD_Model
  facet normal -1 0 0
    outer loop
      vertex 0 40.6 0
      vertex 0 25.6 1.1
      vertex 0 40.6 1.9
    endloop
  endfacet
  facet normal -1 0 0
    outer loop
      vertex 0 40.6 0
      vertex 0 15 1.1
      vertex 0 25.6 1.1
    endloop
  endfacet
  facet normal -1 0 0
    outer loop
      vertex 0 0 0
      vertex 0 15 1.1
      vertex 0 40.6 0
    endloop
  endfacet
  facet normal -1 0 0
    outer loop
      vertex 0 0 1.9
      vertex 0 15 1.1
      vertex 0 0 0
    endloop
  endfacet
  facet normal -1 0 0
    outer loop
      vertex 0 15 1.1
      vertex 0 0 1.9
      vertex 0 15 1.9
    endloop
  endfacet
  facet normal -1 -0 0
    outer loop
      vertex 0 40.6 1.9
      vertex 0 25.6 1.1
      vertex 0 25.6 1.9
    endloop
  endfacet
  facet normal 0 0 1
    outer loop
      vertex 40.6 40.6 1.9
      vertex 39.3 33.45 1.9
      vertex 40.6 33.45 1.9
    endloop
  endfacet
  facet normal 0 0 1
    outer loop
      vertex 24.8 14.6 1.9
      vertex 39.3 27.85 1.9
      vertex 39.3 33.45 1.9
    endloop
  endfacet
  facet normal 0 0 1
    outer loop
      vertex 39.3 27.85 1.9
      vertex 24.8 14.6 1.9
      vertex 39.3 13.15 1.9
    endloop
  endfacet
  facet normal 0 0 1
    outer loop
      vertex 24.8 9.6 1.9
      vertex 39.3 13.15 1.9
      vertex 24.8 14.6 1.9
    endloop
  endfacet
  facet normal -0 0 1
    outer loop
      vertex 0 40.6 1.9
      vertex 39.3 33.45 1.9
      vertex 40.6 40.6 1.9
    endloop
  endfacet
  facet normal 0 0 1
    outer loop
      vertex 39.3 33.45 1.9
      vertex 15.8 14.6 1.9
      vertex 24.8 14.6 1.9
    endloop
  endfacet
  facet normal -0 0 1
    outer loop
      vertex 1.6 15 1.9
      vertex 15.8 14.6 1.9
      vertex 1.6 25.6 1.9
    endloop
  endfacet
  facet normal 0 0 1
    outer loop
      vertex 39.3 33.45 1.9
      vertex 1.6 25.6 1.9
      vertex 15.8 14.6 1.9
    endloop
  endfacet
  facet normal 0 0 1
    outer loop
      vertex 39.3 33.45 1.9
      vertex 0 40.6 1.9
      vertex 1.6 25.6 1.9
    endloop
  endfacet
  facet normal 0 0 1
    outer loop
      vertex 1.6 25.6 1.9
      vertex 0 40.6 1.9
      vertex 0 25.6 1.9
    endloop
  endfacet
  facet normal -0 0 1
    outer loop
      vertex 39.3 27.85 1.9
      vertex 40.6 24.2 1.9
      vertex 40.6 27.85 1.9
    endloop
  endfacet
  facet normal 0 0 1
    outer loop
      vertex 39.3 13.15 1.9
      vertex 40.6 24.2 1.9
      vertex 39.3 27.85 1.9
    endloop
  endfacet
  facet normal 0 0 1
    outer loop
      vertex 40.6 24.2 1.9
      vertex 39.3 13.15 1.9
      vertex 40.6 16.4 1.9
    endloop
  endfacet
  facet normal 0 0 1
    outer loop
      vertex 40.6 16.4 1.9
      vertex 39.3 13.15 1.9
      vertex 40.6 13.15 1.9
    endloop
  endfacet
  facet normal -0 0 1
    outer loop
      vertex 39.3 7.55 1.9
      vertex 40.6 0 1.9
      vertex 40.6 7.55 1.9
    endloop
  endfacet
  facet normal 0 0 1
    outer loop
      vertex 39.3 13.15 1.9
      vertex 24.8 9.6 1.9
      vertex 39.3 7.55 1.9
    endloop
  endfacet
  facet normal 0 0 1
    outer loop
      vertex 39.3 7.55 1.9
      vertex 24.8 9.6 1.9
      vertex 40.6 0 1.9
    endloop
  endfacet
  facet normal -0 0 1
    outer loop
      vertex 15.8 9.6 1.9
      vertex 40.6 0 1.9
      vertex 24.8 9.6 1.9
    endloop
  endfacet
  facet normal 0 0 1
    outer loop
      vertex 15.8 14.6 1.9
      vertex 1.6 15 1.9
      vertex 15.8 9.6 1.9
    endloop
  endfacet
  facet normal 0 0 1
    outer loop
      vertex 0 0 1.9
      vertex 15.8 9.6 1.9
      vertex 1.6 15 1.9
    endloop
  endfacet
  facet normal 0 0 1
    outer loop
      vertex 0 0 1.9
      vertex 1.6 15 1.9
      vertex 0 15 1.9
    endloop
  endfacet
  facet normal 0 0 1
    outer loop
      vertex 15.8 9.6 1.9
      vertex 0 0 1.9
      vertex 40.6 0 1.9
    endloop
  endfacet
  facet normal -1 0 0
    outer loop
      vertex 40.6 16.4 1.9
      vertex 40.6 24.2 2
      vertex 40.6 24.2 1.9
    endloop
  endfacet
  facet normal -1 -0 0
    outer loop
      vertex 40.6 24.2 2
      vertex 40.6 16.4 1.9
      vertex 40.6 16.4 2
    endloop
  endfacet
  facet normal 1 0 0
    outer loop
      vertex 40.6 7.55 1.9
      vertex 40.6 0 1.9
      vertex 40.6 7.55 1.1
    endloop
  endfacet
  facet normal 1 0 0
    outer loop
      vertex 40.6 13.15 1.1
      vertex 40.6 16.4 1.9
      vertex 40.6 13.15 1.9
    endloop
  endfacet
  facet normal 1 0 0
    outer loop
      vertex 40.6 27.85 1.9
      vertex 40.6 24.2 1.9
      vertex 40.6 27.85 1.1
    endloop
  endfacet
  facet normal 1 0 0
    outer loop
      vertex 40.6 33.45 1.1
      vertex 40.6 40.6 1.9
      vertex 40.6 33.45 1.9
    endloop
  endfacet
  facet normal 1 0 0
    outer loop
      vertex 40.6 40.6 1.9
      vertex 40.6 33.45 1.1
      vertex 40.6 40.6 0
    endloop
  endfacet
  facet normal 1 0 0
    outer loop
      vertex 40.6 24.2 0.2
      vertex 40.6 33.45 1.1
      vertex 40.6 27.85 1.1
    endloop
  endfacet
  facet normal 1 0 0
    outer loop
      vertex 40.6 24.2 0.2
      vertex 40.6 27.85 1.1
      vertex 40.6 24.2 1.9
    endloop
  endfacet
  facet normal 1 0 0
    outer loop
      vertex 40.6 33.45 1.1
      vertex 40.6 24.2 0.2
      vertex 40.6 40.6 0
    endloop
  endfacet
  facet normal 1 -0 0
    outer loop
      vertex 40.6 16.4 0.2
      vertex 40.6 40.6 0
      vertex 40.6 24.2 0.2
    endloop
  endfacet
  facet normal 1 0 0
    outer loop
      vertex 40.6 16.4 1.9
      vertex 40.6 13.15 1.1
      vertex 40.6 16.4 0.2
    endloop
  endfacet
  facet normal 1 -0 0
    outer loop
      vertex 40.6 7.55 1.1
      vertex 40.6 16.4 0.2
      vertex 40.6 13.15 1.1
    endloop
  endfacet
  facet normal 1 0 0
    outer loop
      vertex 40.6 16.4 0.2
      vertex 40.6 0 0
      vertex 40.6 40.6 0
    endloop
  endfacet
  facet normal 1 0 0
    outer loop
      vertex 40.6 7.55 1.1
      vertex 40.6 0 0
      vertex 40.6 16.4 0.2
    endloop
  endfacet
  facet normal 1 0 0
    outer loop
      vertex 40.6 0 0
      vertex 40.6 7.55 1.1
      vertex 40.6 0 1.9
    endloop
  endfacet
  facet normal 0 1 -0
    outer loop
      vertex 40.6 40.6 0
      vertex 0 40.6 1.9
      vertex 40.6 40.6 1.9
    endloop
  endfacet
  facet normal 0 1 0
    outer loop
      vertex 0 40.6 1.9
      vertex 40.6 40.6 0
      vertex 0 40.6 0
    endloop
  endfacet
  facet normal 0 0 -1
    outer loop
      vertex 24.8 14.6 0
      vertex 40.6 0 0
      vertex 24.8 9.6 0
    endloop
  endfacet
  facet normal 0 0 -1
    outer loop
      vertex 40.6 0 0
      vertex 15.8 9.6 0
      vertex 24.8 9.6 0
    endloop
  endfacet
  facet normal -0 0 -1
    outer loop
      vertex 15.8 9.6 0
      vertex 0 0 0
      vertex 15.8 14.6 0
    endloop
  endfacet
  facet normal 0 0 -1
    outer loop
      vertex 0 0 0
      vertex 15.8 9.6 0
      vertex 40.6 0 0
    endloop
  endfacet
  facet normal 0 0 -1
    outer loop
      vertex 40.6 0 0
      vertex 24.8 14.6 0
      vertex 40.6 40.6 0
    endloop
  endfacet
  facet normal 0 0 -1
    outer loop
      vertex 15.8 14.6 0
      vertex 40.6 40.6 0
      vertex 24.8 14.6 0
    endloop
  endfacet
  facet normal 0 0 -1
    outer loop
      vertex 0 40.6 0
      vertex 15.8 14.6 0
      vertex 0 0 0
    endloop
  endfacet
  facet normal 0 0 -1
    outer loop
      vertex 15.8 14.6 0
      vertex 0 40.6 0
      vertex 40.6 40.6 0
    endloop
  endfacet
  facet normal 0 -1 0
    outer loop
      vertex 0 0 0
      vertex 40.6 0 1.9
      vertex 0 0 1.9
    endloop
  endfacet
  facet normal 0 -1 -0
    outer loop
      vertex 40.6 0 1.9
      vertex 0 0 0
      vertex 40.6 0 0
    endloop
  endfacet
  facet normal -1 0 0
    outer loop
      vertex 1.6 15 1.1
      vertex 1.6 25.6 1.9
      vertex 1.6 25.6 1.1
    endloop
  endfacet
  facet normal -1 -0 0
    outer loop
      vertex 1.6 25.6 1.9
      vertex 1.6 15 1.1
      vertex 1.6 15 1.9
    endloop
  endfacet
  facet normal 0 -1 0
    outer loop
      vertex 0 25.6 1.1
      vertex 1.6 25.6 1.9
      vertex 0 25.6 1.9
    endloop
  endfacet
  facet normal 0 -1 -0
    outer loop
      vertex 1.6 25.6 1.9
      vertex 0 25.6 1.1
      vertex 1.6 25.6 1.1
    endloop
  endfacet
  facet normal -0 0 1
    outer loop
      vertex 0 25.6 1.1
      vertex 1.6 15 1.1
      vertex 1.6 25.6 1.1
    endloop
  endfacet
  facet normal 0 0 1
    outer loop
      vertex 1.6 15 1.1
      vertex 0 25.6 1.1
      vertex 0 15 1.1
    endloop
  endfacet
  facet normal 0 1 -0
    outer loop
      vertex 1.6 15 1.1
      vertex 0 15 1.9
      vertex 1.6 15 1.9
    endloop
  endfacet
  facet normal 0 1 0
    outer loop
      vertex 0 15 1.9
      vertex 1.6 15 1.1
      vertex 0 15 1.1
    endloop
  endfacet
  facet normal 1 -0 0
    outer loop
      vertex 39.3 7.55 1.9
      vertex 39.3 13.15 1.1
      vertex 39.3 13.15 1.9
    endloop
  endfacet
  facet normal 1 0 0
    outer loop
      vertex 39.3 13.15 1.1
      vertex 39.3 7.55 1.9
      vertex 39.3 7.55 1.1
    endloop
  endfacet
  facet normal 0 -1 0
    outer loop
      vertex 39.3 13.15 1.1
      vertex 40.6 13.15 1.9
      vertex 39.3 13.15 1.9
    endloop
  endfacet
  facet normal 0 -1 -0
    outer loop
      vertex 40.6 13.15 1.9
      vertex 39.3 13.15 1.1
      vertex 40.6 13.15 1.1
    endloop
  endfacet
  facet normal -0 0 1
    outer loop
      vertex 39.3 13.15 1.1
      vertex 40.6 7.55 1.1
      vertex 40.6 13.15 1.1
    endloop
  endfacet
  facet normal 0 0 1
    outer loop
      vertex 40.6 7.55 1.1
      vertex 39.3 13.15 1.1
      vertex 39.3 7.55 1.1
    endloop
  endfacet
  facet normal 0 1 -0
    outer loop
      vertex 40.6 7.55 1.1
      vertex 39.3 7.55 1.9
      vertex 40.6 7.55 1.9
    endloop
  endfacet
  facet normal 0 1 0
    outer loop
      vertex 39.3 7.55 1.9
      vertex 40.6 7.55 1.1
      vertex 39.3 7.55 1.1
    endloop
  endfacet
  facet normal 1 -0 0
    outer loop
      vertex 39.3 27.85 1.9
      vertex 39.3 33.45 1.1
      vertex 39.3 33.45 1.9
    endloop
  endfacet
  facet normal 1 0 0
    outer loop
      vertex 39.3 33.45 1.1
      vertex 39.3 27.85 1.9
      vertex 39.3 27.85 1.1
    endloop
  endfacet
  facet normal 0 -1 0
    outer loop
      vertex 39.3 33.45 1.1
      vertex 40.6 33.45 1.9
      vertex 39.3 33.45 1.9
    endloop
  endfacet
  facet normal 0 -1 -0
    outer loop
      vertex 40.6 33.45 1.9
      vertex 39.3 33.45 1.1
      vertex 40.6 33.45 1.1
    endloop
  endfacet
  facet normal -0 0 1
    outer loop
      vertex 39.3 33.45 1.1
      vertex 40.6 27.85 1.1
      vertex 40.6 33.45 1.1
    endloop
  endfacet
  facet normal 0 0 1
    outer loop
      vertex 40.6 27.85 1.1
      vertex 39.3 33.45 1.1
      vertex 39.3 27.85 1.1
    endloop
  endfacet
  facet normal 0 1 -0
    outer loop
      vertex 40.6 27.85 1.1
      vertex 39.3 27.85 1.9
      vertex 40.6 27.85 1.9
    endloop
  endfacet
  facet normal 0 1 0
    outer loop
      vertex 39.3 27.85 1.9
      vertex 40.6 27.85 1.1
      vertex 39.3 27.85 1.1
    endloop
  endfacet
  facet normal 1 -0 0
    outer loop
      vertex 15.8 9.6 1.9
      vertex 15.8 14.6 0
      vertex 15.8 14.6 1.9
    endloop
  endfacet
  facet normal 1 0 0
    outer loop
      vertex 15.8 14.6 0
      vertex 15.8 9.6 1.9
      vertex 15.8 9.6 0
    endloop
  endfacet
  facet normal -1 0 0
    outer loop
      vertex 24.8 9.6 0
      vertex 24.8 14.6 1.9
      vertex 24.8 14.6 0
    endloop
  endfacet
  facet normal -1 -0 0
    outer loop
      vertex 24.8 14.6 1.9
      vertex 24.8 9.6 0
      vertex 24.8 9.6 1.9
    endloop
  endfacet
  facet normal 0 1 -0
    outer loop
      vertex 24.8 9.6 0
      vertex 15.8 9.6 1.9
      vertex 24.8 9.6 1.9
    endloop
  endfacet
  facet normal 0 1 0
    outer loop
      vertex 15.8 9.6 1.9
      vertex 24.8 9.6 0
      vertex 15.8 9.6 0
    endloop
  endfacet
  facet normal 0 -1 0
    outer loop
      vertex 15.8 14.6 0
      vertex 24.8 14.6 1.9
      vertex 15.8 14.6 1.9
    endloop
  endfacet
  facet normal 0 -1 -0
    outer loop
      vertex 24.8 14.6 1.9
      vertex 15.8 14.6 0
      vertex 24.8 14.6 0
    endloop
  endfacet
  facet normal -0 0 1
    outer loop
      vertex 40.6 24.2 2
      vertex 42.8 16.4 2
      vertex 42.8 24.2 2
    endloop
  endfacet
  facet normal 0 0 1
    outer loop
      vertex 42.8 16.4 2
      vertex 40.6 24.2 2
      vertex 40.6 16.4 2
    endloop
  endfacet
  facet normal 1 -0 0
    outer loop
      vertex 42.8 16.4 2
      vertex 42.8 24.2 0.2
      vertex 42.8 24.2 2
    endloop
  endfacet
  facet normal 1 0 0
    outer loop
      vertex 42.8 24.2 0.2
      vertex 42.8 16.4 2
      vertex 42.8 16.4 0.2
    endloop
  endfacet
  facet normal 0 1 0
    outer loop
      vertex 42.8 24.2 2
      vertex 40.6 24.2 1.9
      vertex 40.6 24.2 2
    endloop
  endfacet
  facet normal 0 1 -0
    outer loop
      vertex 42.8 24.2 0.2
      vertex 40.6 24.2 1.9
      vertex 42.8 24.2 2
    endloop
  endfacet
  facet normal 0 1 0
    outer loop
      vertex 40.6 24.2 1.9
      vertex 42.8 24.2 0.2
      vertex 40.6 24.2 0.2
    endloop
  endfacet
  facet normal 0 0 -1
    outer loop
      vertex 40.6 16.4 0.2
      vertex 42.8 24.2 0.2
      vertex 42.8 16.4 0.2
    endloop
  endfacet
  facet normal -0 0 -1
    outer loop
      vertex 42.8 24.2 0.2
      vertex 40.6 16.4 0.2
      vertex 40.6 24.2 0.2
    endloop
  endfacet
  facet normal 0 -1 0
    outer loop
      vertex 40.6 16.4 1.9
      vertex 42.8 16.4 2
      vertex 40.6 16.4 2
    endloop
  endfacet
  facet normal 0 -1 0
    outer loop
      vertex 42.8 16.4 0.2
      vertex 40.6 16.4 1.9
      vertex 40.6 16.4 0.2
    endloop
  endfacet
  facet normal 0 -1 0
    outer loop
      vertex 40.6 16.4 1.9
      vertex 42.8 16.4 0.2
      vertex 42.8 16.4 2
    endloop
  endfacet
endsolid OpenSCAD_Model
